PathFileType	4	(X/Y/Z)	pose2sim_0-814.trc
DataRate	CameraRate	NumFrames	NumMarkers	Units	OrigDataRate	OrigDataStartFrame	OrigNumFrames
50	50	8	22	m	50	203	815
Frame#	Time	Hip			RHip			RKnee			RAnkle			RBigToe			RSmallToe			RHeel			LHip			LKnee			LAnkle			LBigToe			LSmallToe			LHeel			Neck			Head			Nose			RShoulder			RElbow			RWrist			LShoulder			LElbow			LWrist			
		X1	Y1	Z1	X2	Y2	Z2	X3	Y3	Z3	X4	Y4	Z4	X5	Y5	Z5	X6	Y6	Z6	X7	Y7	Z7	X8	Y8	Z8	X9	Y9	Z9	X10	Y10	Z10	X11	Y11	Z11	X12	Y12	Z12	X13	Y13	Z13	X14	Y14	Z14	X15	Y15	Z15	X16	Y16	Z16	X17	Y17	Z17	X18	Y18	Z18	X19	Y19	Z19	X20	Y20	Z20	X21	Y21	Z21	X22	Y22	Z22	
203	4.06	0.14468521572876497	0.9626748178065611	-0.10352019494463047	0.023004671414466365	0.9520263249494489	-0.10286578395001414	-0.009102867596604615	0.521402836449778	-0.129837420340617	-0.042101476825075944	0.0898924388777843	-0.16028380312939702	-0.08042170715208583	0.04128350937477599	0.022399283473923497	-0.12318578214425718	0.041264489679903454	-0.041047441709715395	-0.031745571777252644	0.05078845341349083	-0.19719845385080736	0.26643148643805986	0.9552888629249308	-0.09863174416878817	0.2974569676837319	0.5240303939244572	-0.11859828846495457	0.3281365013496308	0.09579611591331703	-0.14638661929240787	0.368177217091058	0.036840350449134675	0.016303170125898762	0.40963777321200795	0.03992725262837433	-0.038034083058179416	0.31440222201925155	0.049119271927666006	-0.1811403690511317	0.13123512176820168	1.5634700805454134	-0.014389626791074271	0.12404280050419236	1.8013628567921116	0.048610706384559665	0.12300324174886247	1.6601028726568694	0.1508225052015193	-0.05740068152043229	1.4560472612999085	-0.03072822080750742	-0.11034876994457776	1.1508252856916474	-0.0245699761290425	-0.17085196133774752	0.8883230431435342	0.009260989709302888	0.3196952715872288	1.465880542685374	-0.04486545218116372	0.38534460556892286	1.16847107825534	-0.024450460760932314	0.47089938191907577	0.9053207238988459	0.041762115266699915
204	4.08	0.14437926948053847	0.9634615792672547	-0.09762519140291655	0.024342122738892778	0.9511744298270629	-0.10027349468674063	-0.009635154335670765	0.5212160500781546	-0.12942957067386593	-0.042956876073534274	0.08484642122125516	-0.1655429156814147	-0.06518036997242299	0.03506532172700504	0.02237223987068092	-0.11544908648123249	0.03696417644100541	-0.03335115258198623	-0.03573373619365231	0.036579002762466874	-0.20973377943051788	0.26540307863159857	0.9519725518355969	-0.09319968250708963	0.2979419543993729	0.5207252287883888	-0.11758392720753649	0.3273691322269484	0.08525147951948824	-0.15023203896024392	0.35269203521887554	0.03405125236197614	0.04854358546452952	0.3959769211959427	0.03431401841487503	-0.013330861690593448	0.3174422505982879	0.03710559460780511	-0.1856238276316592	0.13216963710694427	1.561820541189419	-0.011435975337163715	0.1279371134035856	1.7958733975320982	0.05073927482784539	0.12569539582143602	1.653739737521429	0.12305547797900442	-0.056682296055213355	1.4590343560324213	-0.03091068452225831	-0.11059748263884656	1.151971639701284	-0.029612355845815765	-0.1648830329815835	0.8880711870503568	0.03207103759654271	0.32443235310273855	1.4614999271048932	-0.049849018431275094	0.39164572979222173	1.1590931552453894	-0.024738010959810208	0.47298115798912843	0.9030751129458288	0.054229592487731786
205	4.1	0.14163491466105982	0.9620624549781259	-0.10453087525107958	0.0220288534642555	0.9501106939723853	-0.10595653180861588	-0.00975147289619115	0.5203294158048284	-0.1360985205316117	-0.043531763378508004	0.08734283168232543	-0.16029697936549675	-0.07799177255547511	0.03950895763404371	0.010029930803406098	-0.12571666087949293	0.04033096896217882	-0.05025737108377846	-0.031120822577351673	0.046673744190318514	-0.1972524458138684	0.26640548669753406	0.9550297131029394	-0.09736027205823226	0.29788159649816415	0.5246346219246415	-0.11748195046608118	0.32715240558380004	0.0950891281857632	-0.14498588625316505	0.3655073107259411	0.03717979100410522	0.005478547183460217	0.40993691594971676	0.04251731065413281	-0.046455472408784934	0.3139018491040871	0.04962020825945881	-0.1778320634878327	0.13221871750934733	1.5607127267704262	-0.013015085679576687	0.1250545693700612	1.799848485634541	0.04452293818068575	0.12219682027313215	1.6565711741095333	0.14477704847866524	-0.05397582262482422	1.452925770860951	-0.028476107479001807	-0.11050369770398998	1.1490581017476242	-0.02177785633932873	-0.16989935286952507	0.8890273264147097	0.03345105240861039	0.3216886267311474	1.4643634581718643	-0.05182935010756391	0.3916145980416227	1.1685950225581136	-0.022668933370287598	0.47041331229828204	0.9085455160446039	0.06237324499432438
206	4.12	0.1419791697367199	0.9630011685259673	-0.10309542928750462	0.02347042711779252	0.9511033969477006	-0.10570248779979599	-0.00861750355550093	0.5217119631008021	-0.1316980047683655	-0.04492859360988443	0.09036131976710499	-0.16174469988034154	-0.07809682399403062	0.04125923160017036	0.008781715907173384	-0.12200111920387051	0.043688246543917654	-0.049528013870430064	-0.03304727300899236	0.05137204017507802	-0.19646019481692745	0.2651788645087137	0.9532841712842449	-0.09875048572129505	0.2977665134309497	0.5246407246534487	-0.12083324520925116	0.3280614111846461	0.09383331793166753	-0.14820287652119102	0.36517568585031746	0.03786498038379997	0.019678609252115644	0.4111843773308006	0.04093623221607906	-0.03654300213048822	0.3168846597825734	0.04690722680160346	-0.18220436400503862	0.13173356149961762	1.5620728611083339	-0.02136973098892334	0.1244819921828382	1.797911370235227	0.048960723062251015	0.1219935099702002	1.6542560823660057	0.14709117303814437	-0.05238280891583615	1.454852213927307	-0.03443550236531705	-0.11048837664222357	1.1505109046004278	-0.013304076017450647	-0.1667534844264921	0.891253132501469	0.05093562174336421	0.32020465089037586	1.463504857751739	-0.051417690332384226	0.39153029263709527	1.1692512474331413	-0.025945736221596155	0.47059931585980014	0.9123854636679475	0.07136783906917828
207	4.14	0.141145337210764	0.9630720537250098	-0.09923882819017874	0.022202292602572345	0.9512378742136345	-0.10194837571771984	-0.0095190329897051	0.5190903131676897	-0.13470223832895206	-0.04290291180225135	0.08934391528661116	-0.16276134857055805	-0.07526904101392223	0.0390581683598266	0.004534704763798099	-0.1197335955212678	0.041342186673861865	-0.05324909621769669	-0.03147013893065323	0.04748295895740848	-0.19699126668535033	0.26539203878161644	0.9558521556777483	-0.09523566089909936	0.29660560289768595	0.5233693557026585	-0.12150408728580613	0.3272255286619603	0.0942765647376324	-0.1506064079642561	0.3687408219804361	0.03811821994870972	0.023240972369257432	0.41171309791213284	0.041518312601354496	-0.04069166188023642	0.31363056090817726	0.048320720043057215	-0.17942540280318123	0.13240278323444635	1.5634959411981673	-0.01324508297520999	0.12377465183251549	1.7973772679150073	0.05274246992080075	0.11782868161739748	1.6532808063233007	0.15892861919675805	-0.053047506931864184	1.4547235149763227	-0.036509886544511795	-0.11170039248372676	1.1539948468735832	-0.01092654561613638	-0.16764853068506597	0.8990186709884869	0.06184720112315427	0.3207681536147251	1.4631917722431975	-0.04920134238121102	0.3920221871114884	1.1731736256924103	-0.02294492988435742	0.4715993564612071	0.9219971596246135	0.07332464239662423
208	4.16	0.14529656428300483	0.9691534323744224	-0.1113715226895711	0.023874133018613918	0.95432192827332	-0.10736141880885444	-0.009523918025748278	0.5198945245657743	-0.13569109543198096	-0.04408472929427516	0.08249416170651076	-0.16949445013812872	-0.06815126860395981	0.03324354399839337	0.022220385720438038	-0.11659440392769185	0.03718353092641907	-0.036039451257504976	-0.034992703266163355	0.03391371982320185	-0.20639149192864542	0.2652272522283963	0.9542997644723286	-0.10182895582880105	0.29668723549157544	0.5241139428286178	-0.11849671564616324	0.3268935168040342	0.08385999429190104	-0.1502159250161467	0.35369295576316856	0.03381935583891586	0.050120113415138855	0.3980408269304113	0.03392011982366904	-0.014610602234926683	0.3162882249148342	0.03678725642538455	-0.18312795198037835	0.13325010044324742	1.5622201440158394	-0.020838599634968785	0.1291272420130284	1.791513668115221	0.05201299292884531	0.12093062353805838	1.6458740233857168	0.14101200252823218	-0.05295252833862197	1.4588833612874297	-0.03997590496642511	-0.1090906609318625	1.1573308238798532	-0.011814234648355442	-0.16591615679489144	0.9022230101144909	0.07709638037474825	0.3231259440114939	1.4623537364435693	-0.053771378129559434	0.39538905133396035	1.1683776495189029	-0.020414305079597905	0.47181239457554053	0.9205945935421411	0.08680009052832635
209	4.18	0.1427081889549818	0.9645903761405008	-0.10497064816228943	0.024856587131423795	0.952695067644842	-0.10968281242937136	-0.005319769183098534	0.5219954206243616	-0.13755067842233878	-0.04301999656776001	0.09049300948240008	-0.1630420832549358	-0.07528678581453378	0.03981110028614113	0.0048337757962743	-0.11956694016854152	0.042140574600535205	-0.05738641550145518	-0.032272858780127096	0.04857756746316942	-0.19918794416429564	0.26410186559304794	0.9537694795891082	-0.10330267189504139	0.2972022836463882	0.5251291715203502	-0.11918387131265362	0.32579206042958314	0.0922674535324992	-0.14817405529786604	0.3641574965457207	0.0351394736231855	0.026755910669365217	0.4087108496973483	0.03995882180894846	-0.03400081946128037	0.31808942633270143	0.0474166418790674	-0.17880608096287767	0.1334922795718138	1.5622367189568027	-0.019007866969085425	0.12789542928885267	1.7939401239100106	0.041045400820879145	0.12095993010329226	1.6483931209035276	0.14926472222648277	-0.05031976094045122	1.4561905442926806	-0.04433120025715513	-0.11159583350132919	1.1556115363057713	-0.012216157160193707	-0.1645358406969898	0.9075837791846638	0.09864243524782378	0.3206716013413058	1.4648386840303365	-0.05334178911071469	0.3920792288611869	1.1739437984253418	-0.0130805152480314	0.46996571963625494	0.9316500724949442	0.1049125935530224
210	4.2	0.14351695259626698	0.9641960587014476	-0.10491891256109141	0.026400968993829602	0.9525441408717286	-0.10466161642490583	-0.00660322117231367	0.5243091304246182	-0.1405715009379266	-0.04176988851696495	0.09103490408962182	-0.16155805767487863	-0.07601729352876035	0.03901278423035519	0.003621299260522585	-0.12341585227505676	0.042890293868342595	-0.05521853920847835	-0.03378339401569789	0.05043551634315589	-0.19598330048733772	0.26628914776846396	0.9546458782549768	-0.09901460278599529	0.29912249425665643	0.524281914728533	-0.12202051271816021	0.32610815486055666	0.09393461191762402	-0.14671663604388155	0.3659015789397113	0.03528431404507607	0.025640162784760407	0.4085821112521542	0.03899695657409285	-0.037890974329591987	0.3156749961276959	0.04489636283817699	-0.17890783748486014	0.13201151192297483	1.5620752812190515	-0.025411764999967012	0.12765922086256848	1.7907293429927296	0.04474633545100314	0.12516132411163755	1.6490099484571588	0.1447777241300962	-0.05157936331553814	1.4561721117288222	-0.03966955930284895	-0.11204489927796381	1.1584034645238863	-0.008495138172947602	-0.16741106512281598	0.9153455104898086	0.1053173163148527	0.3200562622722288	1.4649985185050785	-0.055479103339681965	0.3928705223418804	1.1759693819161696	-0.010227041646337509	0.4721153252096825	0.9394722234301822	0.11757613277401655
